<?xml version="1.0" encoding="utf-8"?>
<!-- Generator: Adobe Illustrator 22.1.0, SVG Export Plug-In . SVG Version: 6.00 Build 0)  -->
<svg version="1.1" id="图层_1" xmlns="http://www.w3.org/2000/svg" xmlns:xlink="http://www.w3.org/1999/xlink" x="0px" y="0px"
	 viewBox="0 0 16 16" style="enable-background:new 0 0 16 16;" xml:space="preserve">
<style type="text/css">
	.st0{fill:#FFFFFF;}
</style>
<g id="_x30_409-知识库列表">
	<g id="_x30_0-切图" transform="translate(-92.000000, -238.000000)">
		<g id="icon_clear-2" transform="translate(92.000000, 238.000000)">
			<circle id="Oval" cx="8" cy="8" r="8"/>
			<path id="Path" class="st0" d="M6.9,8L4.3,5.3c-0.2-0.2-0.2-0.5,0-0.7l0.4-0.4c0.2-0.2,0.5-0.2,0.7,0L8,6.9l2.7-2.7
				c0.2-0.2,0.5-0.2,0.7,0l0.4,0.4c0.2,0.2,0.2,0.5,0,0.7L9.1,8l2.7,2.7c0.2,0.2,0.2,0.5,0,0.7l-0.4,0.4c-0.2,0.2-0.5,0.2-0.7,0
				L8,9.1l-2.7,2.7c-0.2,0.2-0.5,0.2-0.7,0l-0.4-0.4c-0.2-0.2-0.2-0.5,0-0.7L6.9,8z"/>
		</g>
	</g>
</g>
</svg>
