<?xml version="1.0" encoding="utf-8"?>
<!-- Generator: Adobe Illustrator 22.1.0, SVG Export Plug-In . SVG Version: 6.00 Build 0)  -->
<svg version="1.1" id="图层_1" xmlns="http://www.w3.org/2000/svg" xmlns:xlink="http://www.w3.org/1999/xlink" x="0px" y="0px"
	 viewBox="0 0 60 60" style="enable-background:new 0 0 60 60;" xml:space="preserve">
<style type="text/css">
	.st0{fill:#F57171;}
	.st1{fill:#FFFFFF;}
</style>
<g id="组件">
	<g id="_x30_5-操作提示-失败" transform="translate(-158.000000, -168.000000)">
		<g id="Group-5" transform="translate(158.000000, 168.000000)">
			<g id="fail-2">
				<g id="fail">
					<circle id="Oval" class="st0" cx="30" cy="30" r="30"/>
					<path id="Path" class="st1" d="M27.2,30l-6.4-6.4c-0.4-0.4-0.4-1,0-1.4l1.4-1.4c0.4-0.4,1-0.4,1.4,0l6.4,6.4l6.4-6.4
						c0.4-0.4,1-0.4,1.4,0l1.4,1.4c0.4,0.4,0.4,1,0,1.4L32.8,30l6.4,6.4c0.4,0.4,0.4,1,0,1.4l-1.4,1.4c-0.4,0.4-1,0.4-1.4,0L30,32.8
						l-6.4,6.4c-0.4,0.4-1,0.4-1.4,0l-1.4-1.4c-0.4-0.4-0.4-1,0-1.4L27.2,30z"/>
				</g>
			</g>
		</g>
	</g>
</g>
</svg>
