<?xml version="1.0" encoding="utf-8"?>
<!-- Generator: Adobe Illustrator 22.1.0, SVG Export Plug-In . SVG Version: 6.00 Build 0)  -->
<svg version="1.1" id="图层_1" xmlns="http://www.w3.org/2000/svg" xmlns:xlink="http://www.w3.org/1999/xlink" x="0px" y="0px"
	 viewBox="0 0 16 16" style="enable-background:new 0 0 16 16;" xml:space="preserve">
<g id="_x30_409-知识库列表">
	<g id="_x30_0-切图" transform="translate(-41.000000, -238.000000)">
		<g id="icon_search-2" transform="translate(41.000000, 238.000000)">
			<path id="Path" d="M9.2,10.3c0.2-0.1,0.4-0.3,0.6-0.5c1.6-1.6,1.6-4.1,0-5.7s-4.1-1.6-5.7,0s-1.6,4.1,0,5.7c1,1,2.3,1.3,3.6,1.1
				L9,12.1c-2,0.7-4.3,0.3-5.8-1.3C1,8.7,1,5.3,3.1,3.1s5.6-2.1,7.8,0c2,2,2.1,5.1,0.5,7.2l2.9,2.9c0.2,0.2,0.2,0.5,0,0.7l-0.4,0.4
				c-0.2,0.2-0.5,0.2-0.7,0L9.2,10.3z"/>
		</g>
	</g>
</g>
</svg>
