<?xml version="1.0" encoding="utf-8"?>
<!-- Generator: Adobe Illustrator 22.1.0, SVG Export Plug-In . SVG Version: 6.00 Build 0)  -->
<svg version="1.1" id="图层_1" xmlns="http://www.w3.org/2000/svg" xmlns:xlink="http://www.w3.org/1999/xlink" x="0px" y="0px"
	 viewBox="0 0 16 16" style="enable-background:new 0 0 16 16;" xml:space="preserve">
<g id="_x30_409-知识库列表">
	<g id="_x30_0-切图" transform="translate(-67.000000, -238.000000)">
		<g id="icon_sort-2" transform="translate(67.000000, 238.000000)">
			<path id="Shape" d="M12.5,2C12.8,2,13,2.2,13,2.5v1C13,3.8,12.8,4,12.5,4h-11C1.2,4,1,3.8,1,3.5v-1C1,2.2,1.2,2,1.5,2H12.5z
				 M14.5,7C14.8,7,15,7.2,15,7.5v1C15,8.8,14.8,9,14.5,9h-13C1.2,9,1,8.8,1,8.5v-1C1,7.2,1.2,7,1.5,7H14.5z M14.5,12
				c0.3,0,0.5,0.2,0.5,0.5v1c0,0.3-0.2,0.5-0.5,0.5h-13C1.2,14,1,13.8,1,13.5v-1C1,12.2,1.2,12,1.5,12H14.5z"/>
		</g>
	</g>
</g>
</svg>
